<?xml version="1.0" encoding="UTF-8" standalone="no"?>
<!DOCTYPE svg PUBLIC "-//W3C//DTD SVG 1.1//EN"
 "http://www.w3.org/Graphics/SVG/1.1/DTD/svg11.dtd">
<!-- Generated by graphviz version 2.38.0 (20140413.2041)
 -->
<!-- Title: %3 Pages: 1 -->
<svg width="3177pt" height="620pt"
 viewBox="0.00 0.00 3177.35 620.00" xmlns="http://www.w3.org/2000/svg" xmlns:xlink="http://www.w3.org/1999/xlink">
<g id="graph0" class="graph" transform="scale(1 1) rotate(0) translate(4 616)">
<title>%3</title>
<polygon fill="white" stroke="none" points="-4,4 -4,-616 3173.35,-616 3173.35,4 -4,4"/>
<!-- [root] aws_db_subnet_group.rds_subnet_group -->
<g id="node1" class="node"><title>[root] aws_db_subnet_group.rds_subnet_group</title>
<polygon fill="none" stroke="black" points="2880.79,-396 2571.79,-396 2571.79,-360 2880.79,-360 2880.79,-396"/>
<text text-anchor="middle" x="2726.29" y="-374.3" font-family="Times,serif" font-size="14.00">aws_db_subnet_group.rds_subnet_group</text>
</g>
<!-- [root] aws_subnet.rds1_subnet -->
<g id="node19" class="node"><title>[root] aws_subnet.rds1_subnet</title>
<polygon fill="none" stroke="black" points="2695.29,-324 2501.29,-324 2501.29,-288 2695.29,-288 2695.29,-324"/>
<text text-anchor="middle" x="2598.29" y="-302.3" font-family="Times,serif" font-size="14.00">aws_subnet.rds1_subnet</text>
</g>
<!-- [root] aws_db_subnet_group.rds_subnet_group&#45;&gt;[root] aws_subnet.rds1_subnet -->
<g id="edge1" class="edge"><title>[root] aws_db_subnet_group.rds_subnet_group&#45;&gt;[root] aws_subnet.rds1_subnet</title>
<path fill="none" stroke="black" d="M2694.98,-359.876C2678.09,-350.639 2657.04,-339.131 2638.91,-329.212"/>
<polygon fill="black" stroke="black" points="2640.18,-325.917 2629.72,-324.19 2636.82,-332.059 2640.18,-325.917"/>
</g>
<!-- [root] aws_subnet.rds2_subnet -->
<g id="node20" class="node"><title>[root] aws_subnet.rds2_subnet</title>
<polygon fill="none" stroke="black" points="2907.29,-324 2713.29,-324 2713.29,-288 2907.29,-288 2907.29,-324"/>
<text text-anchor="middle" x="2810.29" y="-302.3" font-family="Times,serif" font-size="14.00">aws_subnet.rds2_subnet</text>
</g>
<!-- [root] aws_db_subnet_group.rds_subnet_group&#45;&gt;[root] aws_subnet.rds2_subnet -->
<g id="edge2" class="edge"><title>[root] aws_db_subnet_group.rds_subnet_group&#45;&gt;[root] aws_subnet.rds2_subnet</title>
<path fill="none" stroke="black" d="M2747.05,-359.697C2757.53,-350.965 2770.4,-340.24 2781.79,-330.75"/>
<polygon fill="black" stroke="black" points="2784.32,-333.195 2789.77,-324.104 2779.84,-327.817 2784.32,-333.195"/>
</g>
<!-- [root] aws_subnet.rds3_subnet -->
<g id="node21" class="node"><title>[root] aws_subnet.rds3_subnet</title>
<polygon fill="none" stroke="black" points="3119.29,-324 2925.29,-324 2925.29,-288 3119.29,-288 3119.29,-324"/>
<text text-anchor="middle" x="3022.29" y="-302.3" font-family="Times,serif" font-size="14.00">aws_subnet.rds3_subnet</text>
</g>
<!-- [root] aws_db_subnet_group.rds_subnet_group&#45;&gt;[root] aws_subnet.rds3_subnet -->
<g id="edge3" class="edge"><title>[root] aws_db_subnet_group.rds_subnet_group&#45;&gt;[root] aws_subnet.rds3_subnet</title>
<path fill="none" stroke="black" d="M2798.32,-359.966C2841.2,-349.826 2895.74,-336.927 2940.27,-326.396"/>
<polygon fill="black" stroke="black" points="2941.27,-329.758 2950.19,-324.05 2939.66,-322.945 2941.27,-329.758"/>
</g>
<!-- [root] aws_iam_instance_profile.s3_access_profile -->
<g id="node2" class="node"><title>[root] aws_iam_instance_profile.s3_access_profile</title>
<polygon fill="none" stroke="black" points="347.791,-324 18.7908,-324 18.7908,-288 347.791,-288 347.791,-324"/>
<text text-anchor="middle" x="183.291" y="-302.3" font-family="Times,serif" font-size="14.00">aws_iam_instance_profile.s3_access_profile</text>
</g>
<!-- [root] aws_iam_role.s3_access_role -->
<g id="node3" class="node"><title>[root] aws_iam_role.s3_access_role</title>
<polygon fill="none" stroke="black" points="294.791,-252 69.7908,-252 69.7908,-216 294.791,-216 294.791,-252"/>
<text text-anchor="middle" x="182.291" y="-230.3" font-family="Times,serif" font-size="14.00">aws_iam_role.s3_access_role</text>
</g>
<!-- [root] aws_iam_instance_profile.s3_access_profile&#45;&gt;[root] aws_iam_role.s3_access_role -->
<g id="edge4" class="edge"><title>[root] aws_iam_instance_profile.s3_access_profile&#45;&gt;[root] aws_iam_role.s3_access_role</title>
<path fill="none" stroke="black" d="M183.044,-287.697C182.933,-279.983 182.801,-270.712 182.678,-262.112"/>
<polygon fill="black" stroke="black" points="186.178,-262.053 182.535,-252.104 179.178,-262.153 186.178,-262.053"/>
</g>
<!-- [root] provider.aws -->
<g id="node23" class="node"><title>[root] provider.aws</title>
<polygon fill="none" stroke="black" points="323.291,-108 224.252,-90 323.291,-72 422.329,-90 323.291,-108"/>
<text text-anchor="middle" x="323.291" y="-86.3" font-family="Times,serif" font-size="14.00">provider.aws</text>
</g>
<!-- [root] aws_iam_role.s3_access_role&#45;&gt;[root] provider.aws -->
<g id="edge5" class="edge"><title>[root] aws_iam_role.s3_access_role&#45;&gt;[root] provider.aws</title>
<path fill="none" stroke="black" d="M199.299,-215.871C224.874,-190.115 273.233,-141.412 301.406,-113.04"/>
<polygon fill="black" stroke="black" points="304.218,-115.175 308.781,-105.613 299.251,-110.243 304.218,-115.175"/>
</g>
<!-- [root] aws_iam_role_policy.s3_access_policy -->
<g id="node4" class="node"><title>[root] aws_iam_role_policy.s3_access_policy</title>
<polygon fill="none" stroke="black" points="1042.29,-468 754.291,-468 754.291,-432 1042.29,-432 1042.29,-468"/>
<text text-anchor="middle" x="898.291" y="-446.3" font-family="Times,serif" font-size="14.00">aws_iam_role_policy.s3_access_policy</text>
</g>
<!-- [root] aws_iam_role_policy.s3_access_policy&#45;&gt;[root] aws_iam_role.s3_access_role -->
<g id="edge6" class="edge"><title>[root] aws_iam_role_policy.s3_access_policy&#45;&gt;[root] aws_iam_role.s3_access_role</title>
<path fill="none" stroke="black" d="M754.088,-438.965C514.872,-420.84 57.3796,-379.323 9.29079,-324 -19.3322,-291.071 24.9781,-268.713 75.9066,-254.642"/>
<polygon fill="black" stroke="black" points="77.0436,-257.962 85.8183,-252.024 75.256,-251.194 77.0436,-257.962"/>
</g>
<!-- [root] aws_instance.EC2_public1 -->
<g id="node5" class="node"><title>[root] aws_instance.EC2_public1</title>
<polygon fill="none" stroke="black" points="830.791,-396 621.791,-396 621.791,-360 830.791,-360 830.791,-396"/>
<text text-anchor="middle" x="726.291" y="-374.3" font-family="Times,serif" font-size="14.00">aws_instance.EC2_public1</text>
</g>
<!-- [root] aws_instance.EC2_public1&#45;&gt;[root] aws_iam_instance_profile.s3_access_profile -->
<g id="edge7" class="edge"><title>[root] aws_instance.EC2_public1&#45;&gt;[root] aws_iam_instance_profile.s3_access_profile</title>
<path fill="none" stroke="black" d="M621.595,-363.503C537.445,-352.655 418.392,-337.308 325.595,-325.345"/>
<polygon fill="black" stroke="black" points="325.925,-321.859 315.559,-324.051 325.03,-328.801 325.925,-321.859"/>
</g>
<!-- [root] aws_key_pair.wp_auth -->
<g id="node7" class="node"><title>[root] aws_key_pair.wp_auth</title>
<polygon fill="none" stroke="black" points="542.791,-324 365.791,-324 365.791,-288 542.791,-288 542.791,-324"/>
<text text-anchor="middle" x="454.291" y="-302.3" font-family="Times,serif" font-size="14.00">aws_key_pair.wp_auth</text>
</g>
<!-- [root] aws_instance.EC2_public1&#45;&gt;[root] aws_key_pair.wp_auth -->
<g id="edge8" class="edge"><title>[root] aws_instance.EC2_public1&#45;&gt;[root] aws_key_pair.wp_auth</title>
<path fill="none" stroke="black" d="M660.1,-359.966C621.021,-349.909 571.393,-337.136 530.661,-326.654"/>
<polygon fill="black" stroke="black" points="531.335,-323.214 520.778,-324.111 529.591,-329.993 531.335,-323.214"/>
</g>
<!-- [root] aws_security_group.wp_dev_sg -->
<g id="node11" class="node"><title>[root] aws_security_group.wp_dev_sg</title>
<polygon fill="none" stroke="black" points="1022.29,-324 780.291,-324 780.291,-288 1022.29,-288 1022.29,-324"/>
<text text-anchor="middle" x="901.291" y="-302.3" font-family="Times,serif" font-size="14.00">aws_security_group.wp_dev_sg</text>
</g>
<!-- [root] aws_instance.EC2_public1&#45;&gt;[root] aws_security_group.wp_dev_sg -->
<g id="edge9" class="edge"><title>[root] aws_instance.EC2_public1&#45;&gt;[root] aws_security_group.wp_dev_sg</title>
<path fill="none" stroke="black" d="M769.101,-359.876C793.237,-350.222 823.575,-338.087 849.097,-327.878"/>
<polygon fill="black" stroke="black" points="850.635,-331.032 858.62,-324.068 848.035,-324.533 850.635,-331.032"/>
</g>
<!-- [root] aws_subnet.public1_subnet -->
<g id="node17" class="node"><title>[root] aws_subnet.public1_subnet</title>
<polygon fill="none" stroke="black" points="2172.79,-324 1957.79,-324 1957.79,-288 2172.79,-288 2172.79,-324"/>
<text text-anchor="middle" x="2065.29" y="-302.3" font-family="Times,serif" font-size="14.00">aws_subnet.public1_subnet</text>
</g>
<!-- [root] aws_instance.EC2_public1&#45;&gt;[root] aws_subnet.public1_subnet -->
<g id="edge10" class="edge"><title>[root] aws_instance.EC2_public1&#45;&gt;[root] aws_subnet.public1_subnet</title>
<path fill="none" stroke="black" d="M830.842,-373.825C1081.77,-365.989 1713.9,-344.908 1947.45,-323.997"/>
<polygon fill="black" stroke="black" points="1947.96,-327.465 1957.6,-323.065 1947.32,-320.495 1947.96,-327.465"/>
</g>
<!-- [root] var.howmany -->
<g id="node24" class="node"><title>[root] var.howmany</title>
<ellipse fill="none" stroke="black" cx="661.291" cy="-306" rx="100.983" ry="18"/>
<text text-anchor="middle" x="661.291" y="-302.3" font-family="Times,serif" font-size="14.00">[root] var.howmany</text>
</g>
<!-- [root] aws_instance.EC2_public1&#45;&gt;[root] var.howmany -->
<g id="edge11" class="edge"><title>[root] aws_instance.EC2_public1&#45;&gt;[root] var.howmany</title>
<path fill="none" stroke="black" d="M710.223,-359.697C702.352,-351.22 692.736,-340.864 684.117,-331.583"/>
<polygon fill="black" stroke="black" points="686.543,-329.051 677.173,-324.104 681.413,-333.814 686.543,-329.051"/>
</g>
<!-- [root] aws_internet_gateway.wp_internet_gateway -->
<g id="node6" class="node"><title>[root] aws_internet_gateway.wp_internet_gateway</title>
<polygon fill="none" stroke="black" points="1373.79,-324 1040.79,-324 1040.79,-288 1373.79,-288 1373.79,-324"/>
<text text-anchor="middle" x="1207.29" y="-302.3" font-family="Times,serif" font-size="14.00">aws_internet_gateway.wp_internet_gateway</text>
</g>
<!-- [root] module.vpcpub.output.vpcpub -->
<g id="node25" class="node"><title>[root] module.vpcpub.output.vpcpub</title>
<ellipse fill="none" stroke="black" cx="2151.29" cy="-234" rx="181.168" ry="18"/>
<text text-anchor="middle" x="2151.29" y="-230.3" font-family="Times,serif" font-size="14.00">[root] module.vpcpub.output.vpcpub</text>
</g>
<!-- [root] aws_internet_gateway.wp_internet_gateway&#45;&gt;[root] module.vpcpub.output.vpcpub -->
<g id="edge12" class="edge"><title>[root] aws_internet_gateway.wp_internet_gateway&#45;&gt;[root] module.vpcpub.output.vpcpub</title>
<path fill="none" stroke="black" d="M1374.01,-288.693C1376.79,-288.457 1379.55,-288.226 1382.29,-288 1617.15,-268.606 1676.2,-268.325 1911.29,-252 1939.53,-250.039 1969.63,-247.925 1998.63,-245.877"/>
<polygon fill="black" stroke="black" points="1999.11,-249.352 2008.84,-245.155 1998.62,-242.369 1999.11,-249.352"/>
</g>
<!-- [root] aws_key_pair.wp_auth&#45;&gt;[root] provider.aws -->
<g id="edge13" class="edge"><title>[root] aws_key_pair.wp_auth&#45;&gt;[root] provider.aws</title>
<path fill="none" stroke="black" d="M390.68,-287.917C372.327,-279.928 354.091,-268.42 342.291,-252 313.834,-212.403 315.192,-152.663 319.043,-118.179"/>
<polygon fill="black" stroke="black" points="322.557,-118.29 320.346,-107.928 315.613,-117.407 322.557,-118.29"/>
</g>
<!-- [root] var.key_name -->
<g id="node26" class="node"><title>[root] var.key_name</title>
<ellipse fill="none" stroke="black" cx="454.291" cy="-234" rx="103.182" ry="18"/>
<text text-anchor="middle" x="454.291" y="-230.3" font-family="Times,serif" font-size="14.00">[root] var.key_name</text>
</g>
<!-- [root] aws_key_pair.wp_auth&#45;&gt;[root] var.key_name -->
<g id="edge14" class="edge"><title>[root] aws_key_pair.wp_auth&#45;&gt;[root] var.key_name</title>
<path fill="none" stroke="black" d="M454.291,-287.697C454.291,-279.983 454.291,-270.712 454.291,-262.112"/>
<polygon fill="black" stroke="black" points="457.791,-262.104 454.291,-252.104 450.791,-262.104 457.791,-262.104"/>
</g>
<!-- [root] var.public_key_path -->
<g id="node27" class="node"><title>[root] var.public_key_path</title>
<ellipse fill="none" stroke="black" cx="708.291" cy="-234" rx="132.677" ry="18"/>
<text text-anchor="middle" x="708.291" y="-230.3" font-family="Times,serif" font-size="14.00">[root] var.public_key_path</text>
</g>
<!-- [root] aws_key_pair.wp_auth&#45;&gt;[root] var.public_key_path -->
<g id="edge15" class="edge"><title>[root] aws_key_pair.wp_auth&#45;&gt;[root] var.public_key_path</title>
<path fill="none" stroke="black" d="M516.101,-287.966C554.412,-277.408 603.581,-263.857 642.595,-253.105"/>
<polygon fill="black" stroke="black" points="643.572,-256.467 652.282,-250.435 641.712,-249.718 643.572,-256.467"/>
</g>
<!-- [root] aws_route_table.wp_public_rt -->
<g id="node8" class="node"><title>[root] aws_route_table.wp_public_rt</title>
<polygon fill="none" stroke="black" points="1486.79,-396 1255.79,-396 1255.79,-360 1486.79,-360 1486.79,-396"/>
<text text-anchor="middle" x="1371.29" y="-374.3" font-family="Times,serif" font-size="14.00">aws_route_table.wp_public_rt</text>
</g>
<!-- [root] aws_route_table.wp_public_rt&#45;&gt;[root] aws_internet_gateway.wp_internet_gateway -->
<g id="edge16" class="edge"><title>[root] aws_route_table.wp_public_rt&#45;&gt;[root] aws_internet_gateway.wp_internet_gateway</title>
<path fill="none" stroke="black" d="M1331.17,-359.876C1308.65,-350.264 1280.37,-338.193 1256.52,-328.013"/>
<polygon fill="black" stroke="black" points="1257.85,-324.775 1247.28,-324.068 1255.1,-331.213 1257.85,-324.775"/>
</g>
<!-- [root] aws_route_table_association.public1_subnet_assoc -->
<g id="node9" class="node"><title>[root] aws_route_table_association.public1_subnet_assoc</title>
<polygon fill="none" stroke="black" points="1792.79,-468 1409.79,-468 1409.79,-432 1792.79,-432 1792.79,-468"/>
<text text-anchor="middle" x="1601.29" y="-446.3" font-family="Times,serif" font-size="14.00">aws_route_table_association.public1_subnet_assoc</text>
</g>
<!-- [root] aws_route_table_association.public1_subnet_assoc&#45;&gt;[root] aws_route_table.wp_public_rt -->
<g id="edge17" class="edge"><title>[root] aws_route_table_association.public1_subnet_assoc&#45;&gt;[root] aws_route_table.wp_public_rt</title>
<path fill="none" stroke="black" d="M1545.32,-431.966C1512.77,-422.057 1471.55,-409.514 1437.4,-399.121"/>
<polygon fill="black" stroke="black" points="1438.1,-395.674 1427.51,-396.111 1436.06,-402.371 1438.1,-395.674"/>
</g>
<!-- [root] aws_route_table_association.public1_subnet_assoc&#45;&gt;[root] aws_subnet.public1_subnet -->
<g id="edge18" class="edge"><title>[root] aws_route_table_association.public1_subnet_assoc&#45;&gt;[root] aws_subnet.public1_subnet</title>
<path fill="none" stroke="black" d="M1657.26,-431.871C1743.42,-405.502 1908.17,-355.083 1999.77,-327.051"/>
<polygon fill="black" stroke="black" points="2000.95,-330.352 2009.48,-324.079 1998.9,-323.658 2000.95,-330.352"/>
</g>
<!-- [root] aws_route_table_association.public2_subnet_assoc -->
<g id="node10" class="node"><title>[root] aws_route_table_association.public2_subnet_assoc</title>
<polygon fill="none" stroke="black" points="2193.79,-468 1810.79,-468 1810.79,-432 2193.79,-432 2193.79,-468"/>
<text text-anchor="middle" x="2002.29" y="-446.3" font-family="Times,serif" font-size="14.00">aws_route_table_association.public2_subnet_assoc</text>
</g>
<!-- [root] aws_route_table_association.public2_subnet_assoc&#45;&gt;[root] aws_route_table.wp_public_rt -->
<g id="edge19" class="edge"><title>[root] aws_route_table_association.public2_subnet_assoc&#45;&gt;[root] aws_route_table.wp_public_rt</title>
<path fill="none" stroke="black" d="M1826.16,-431.989C1731.33,-422.489 1612.09,-409.996 1497.15,-396.207"/>
<polygon fill="black" stroke="black" points="1497.46,-392.719 1487.11,-394.998 1496.62,-399.669 1497.46,-392.719"/>
</g>
<!-- [root] aws_subnet.public2_subnet -->
<g id="node18" class="node"><title>[root] aws_subnet.public2_subnet</title>
<polygon fill="none" stroke="black" points="2482.79,-324 2267.79,-324 2267.79,-288 2482.79,-288 2482.79,-324"/>
<text text-anchor="middle" x="2375.29" y="-302.3" font-family="Times,serif" font-size="14.00">aws_subnet.public2_subnet</text>
</g>
<!-- [root] aws_route_table_association.public2_subnet_assoc&#45;&gt;[root] aws_subnet.public2_subnet -->
<g id="edge20" class="edge"><title>[root] aws_route_table_association.public2_subnet_assoc&#45;&gt;[root] aws_subnet.public2_subnet</title>
<path fill="none" stroke="black" d="M2012.45,-431.801C2025.59,-411.196 2050.48,-377.296 2081.29,-360 2111.36,-343.12 2189.5,-329.477 2257.67,-320.262"/>
<polygon fill="black" stroke="black" points="2258.19,-323.723 2267.65,-318.935 2257.27,-316.784 2258.19,-323.723"/>
</g>
<!-- [root] aws_security_group.wp_dev_sg&#45;&gt;[root] module.vpcpub.output.vpcpub -->
<g id="edge21" class="edge"><title>[root] aws_security_group.wp_dev_sg&#45;&gt;[root] module.vpcpub.output.vpcpub</title>
<path fill="none" stroke="black" d="M1022.35,-288.81C1025.36,-288.523 1028.34,-288.253 1031.29,-288 1421.3,-254.589 1520.46,-273.831 1911.29,-252 1940.61,-250.362 1971.93,-248.342 2001.93,-246.273"/>
<polygon fill="black" stroke="black" points="2002.32,-249.754 2012.05,-245.569 2001.83,-242.771 2002.32,-249.754"/>
</g>
<!-- [root] var.localip -->
<g id="node28" class="node"><title>[root] var.localip</title>
<ellipse fill="none" stroke="black" cx="1234.29" cy="-234" rx="87.1846" ry="18"/>
<text text-anchor="middle" x="1234.29" y="-230.3" font-family="Times,serif" font-size="14.00">[root] var.localip</text>
</g>
<!-- [root] aws_security_group.wp_dev_sg&#45;&gt;[root] var.localip -->
<g id="edge22" class="edge"><title>[root] aws_security_group.wp_dev_sg&#45;&gt;[root] var.localip</title>
<path fill="none" stroke="black" d="M982.326,-287.966C1038.39,-276.18 1112.2,-260.665 1165.42,-249.477"/>
<polygon fill="black" stroke="black" points="1166.38,-252.852 1175.45,-247.369 1164.94,-246.002 1166.38,-252.852"/>
</g>
<!-- [root] aws_security_group.wp_private_sg -->
<g id="node12" class="node"><title>[root] aws_security_group.wp_private_sg</title>
<polygon fill="none" stroke="black" points="1939.29,-324 1671.29,-324 1671.29,-288 1939.29,-288 1939.29,-324"/>
<text text-anchor="middle" x="1805.29" y="-302.3" font-family="Times,serif" font-size="14.00">aws_security_group.wp_private_sg</text>
</g>
<!-- [root] aws_security_group.wp_private_sg&#45;&gt;[root] module.vpcpub.output.vpcpub -->
<g id="edge23" class="edge"><title>[root] aws_security_group.wp_private_sg&#45;&gt;[root] module.vpcpub.output.vpcpub</title>
<path fill="none" stroke="black" d="M1889.49,-287.966C1942.88,-277.165 2011.74,-263.232 2065.44,-252.368"/>
<polygon fill="black" stroke="black" points="2066.18,-255.79 2075.29,-250.377 2064.79,-248.929 2066.18,-255.79"/>
</g>
<!-- [root] var.vpc_cidr -->
<g id="node29" class="node"><title>[root] var.vpc_cidr</title>
<ellipse fill="none" stroke="black" cx="1805.29" cy="-234" rx="96.6831" ry="18"/>
<text text-anchor="middle" x="1805.29" y="-230.3" font-family="Times,serif" font-size="14.00">[root] var.vpc_cidr</text>
</g>
<!-- [root] aws_security_group.wp_private_sg&#45;&gt;[root] var.vpc_cidr -->
<g id="edge24" class="edge"><title>[root] aws_security_group.wp_private_sg&#45;&gt;[root] var.vpc_cidr</title>
<path fill="none" stroke="black" d="M1805.29,-287.697C1805.29,-279.983 1805.29,-270.712 1805.29,-262.112"/>
<polygon fill="black" stroke="black" points="1808.79,-262.104 1805.29,-252.104 1801.79,-262.104 1808.79,-262.104"/>
</g>
<!-- [root] aws_security_group.wp_public_sg -->
<g id="node13" class="node"><title>[root] aws_security_group.wp_public_sg</title>
<polygon fill="none" stroke="black" points="1652.79,-324 1391.79,-324 1391.79,-288 1652.79,-288 1652.79,-324"/>
<text text-anchor="middle" x="1522.29" y="-302.3" font-family="Times,serif" font-size="14.00">aws_security_group.wp_public_sg</text>
</g>
<!-- [root] aws_security_group.wp_public_sg&#45;&gt;[root] module.vpcpub.output.vpcpub -->
<g id="edge25" class="edge"><title>[root] aws_security_group.wp_public_sg&#45;&gt;[root] module.vpcpub.output.vpcpub</title>
<path fill="none" stroke="black" d="M1653.07,-289.066C1656.17,-288.705 1659.25,-288.349 1662.29,-288 1784.09,-274.005 1923.07,-259.038 2021.66,-248.591"/>
<polygon fill="black" stroke="black" points="2022.09,-252.064 2031.67,-247.531 2021.36,-245.103 2022.09,-252.064"/>
</g>
<!-- [root] aws_security_group.wp_public_sg&#45;&gt;[root] var.localip -->
<g id="edge26" class="edge"><title>[root] aws_security_group.wp_public_sg&#45;&gt;[root] var.localip</title>
<path fill="none" stroke="black" d="M1452.21,-287.966C1405.21,-276.542 1343.79,-261.614 1298.14,-250.519"/>
<polygon fill="black" stroke="black" points="1298.9,-247.103 1288.36,-248.142 1297.25,-253.905 1298.9,-247.103"/>
</g>
<!-- [root] aws_security_group.wp_rds_sg -->
<g id="node14" class="node"><title>[root] aws_security_group.wp_rds_sg</title>
<polygon fill="none" stroke="black" points="1744.29,-396 1504.29,-396 1504.29,-360 1744.29,-360 1744.29,-396"/>
<text text-anchor="middle" x="1624.29" y="-374.3" font-family="Times,serif" font-size="14.00">aws_security_group.wp_rds_sg</text>
</g>
<!-- [root] aws_security_group.wp_rds_sg&#45;&gt;[root] aws_security_group.wp_dev_sg -->
<g id="edge27" class="edge"><title>[root] aws_security_group.wp_rds_sg&#45;&gt;[root] aws_security_group.wp_dev_sg</title>
<path fill="none" stroke="black" d="M1504.15,-360.953C1501.17,-360.624 1498.21,-360.306 1495.29,-360 1292.89,-338.827 1238.75,-345.201 1032.62,-324.104"/>
<polygon fill="black" stroke="black" points="1032.67,-320.591 1022.36,-323.045 1031.95,-327.554 1032.67,-320.591"/>
</g>
<!-- [root] aws_security_group.wp_rds_sg&#45;&gt;[root] aws_security_group.wp_private_sg -->
<g id="edge28" class="edge"><title>[root] aws_security_group.wp_rds_sg&#45;&gt;[root] aws_security_group.wp_private_sg</title>
<path fill="none" stroke="black" d="M1668.57,-359.876C1693.64,-350.179 1725.19,-337.98 1751.66,-327.743"/>
<polygon fill="black" stroke="black" points="1753.09,-330.94 1761.16,-324.068 1750.57,-324.411 1753.09,-330.94"/>
</g>
<!-- [root] aws_security_group.wp_rds_sg&#45;&gt;[root] aws_security_group.wp_public_sg -->
<g id="edge29" class="edge"><title>[root] aws_security_group.wp_rds_sg&#45;&gt;[root] aws_security_group.wp_public_sg</title>
<path fill="none" stroke="black" d="M1599.34,-359.876C1586.25,-350.893 1570.03,-339.763 1555.85,-330.034"/>
<polygon fill="black" stroke="black" points="1557.56,-326.962 1547.34,-324.19 1553.6,-332.734 1557.56,-326.962"/>
</g>
<!-- [root] aws_subnet.private1_Subnet -->
<g id="node15" class="node"><title>[root] aws_subnet.private1_Subnet</title>
<polygon fill="none" stroke="black" points="2312.79,-396 2089.79,-396 2089.79,-360 2312.79,-360 2312.79,-396"/>
<text text-anchor="middle" x="2201.29" y="-374.3" font-family="Times,serif" font-size="14.00">aws_subnet.private1_Subnet</text>
</g>
<!-- [root] aws_subnet.private1_Subnet&#45;&gt;[root] module.vpcpub.output.vpcpub -->
<g id="edge30" class="edge"><title>[root] aws_subnet.private1_Subnet&#45;&gt;[root] module.vpcpub.output.vpcpub</title>
<path fill="none" stroke="black" d="M2199.28,-359.804C2196.76,-341.528 2191.6,-312.012 2182.29,-288 2178.73,-278.803 2173.69,-269.33 2168.71,-260.983"/>
<polygon fill="black" stroke="black" points="2171.65,-259.082 2163.4,-252.433 2165.7,-262.774 2171.65,-259.082"/>
</g>
<!-- [root] var.cidrs -->
<g id="node30" class="node"><title>[root] var.cidrs</title>
<ellipse fill="none" stroke="black" cx="2810.29" cy="-234" rx="79.8859" ry="18"/>
<text text-anchor="middle" x="2810.29" y="-230.3" font-family="Times,serif" font-size="14.00">[root] var.cidrs</text>
</g>
<!-- [root] aws_subnet.private1_Subnet&#45;&gt;[root] var.cidrs -->
<g id="edge31" class="edge"><title>[root] aws_subnet.private1_Subnet&#45;&gt;[root] var.cidrs</title>
<path fill="none" stroke="black" d="M2312.99,-360.913C2316.12,-360.588 2319.23,-360.283 2322.29,-360 2366.92,-355.877 3097.31,-356.394 3128.29,-324 3139.35,-312.437 3138.63,-300.208 3128.29,-288 3099.44,-253.939 2983.07,-241.747 2899.46,-237.396"/>
<polygon fill="black" stroke="black" points="2899.59,-233.898 2889.43,-236.903 2899.25,-240.89 2899.59,-233.898"/>
</g>
<!-- [root] aws_subnet.private2_Subnet -->
<g id="node16" class="node"><title>[root] aws_subnet.private2_Subnet</title>
<polygon fill="none" stroke="black" points="2553.79,-396 2330.79,-396 2330.79,-360 2553.79,-360 2553.79,-396"/>
<text text-anchor="middle" x="2442.29" y="-374.3" font-family="Times,serif" font-size="14.00">aws_subnet.private2_Subnet</text>
</g>
<!-- [root] aws_subnet.private2_Subnet&#45;&gt;[root] module.vpcpub.output.vpcpub -->
<g id="edge32" class="edge"><title>[root] aws_subnet.private2_Subnet&#45;&gt;[root] module.vpcpub.output.vpcpub</title>
<path fill="none" stroke="black" d="M2357.07,-359.994C2325.28,-351.699 2289.57,-339.978 2259.29,-324 2227.09,-307.007 2195.58,-279.412 2174.99,-259.449"/>
<polygon fill="black" stroke="black" points="2177.23,-256.742 2167.65,-252.21 2172.31,-261.725 2177.23,-256.742"/>
</g>
<!-- [root] aws_subnet.private2_Subnet&#45;&gt;[root] var.cidrs -->
<g id="edge33" class="edge"><title>[root] aws_subnet.private2_Subnet&#45;&gt;[root] var.cidrs</title>
<path fill="none" stroke="black" d="M2554,-360.976C2557.13,-360.633 2560.23,-360.307 2563.29,-360 2629.52,-353.364 3115.66,-372.462 3161.29,-324 3172.26,-312.351 3171.73,-300.129 3161.29,-288 3128.26,-249.612 2992.99,-238.669 2900.36,-235.754"/>
<polygon fill="black" stroke="black" points="2900.23,-232.249 2890.13,-235.459 2900.02,-239.246 2900.23,-232.249"/>
</g>
<!-- [root] aws_subnet.public1_subnet&#45;&gt;[root] module.vpcpub.output.vpcpub -->
<g id="edge34" class="edge"><title>[root] aws_subnet.public1_subnet&#45;&gt;[root] module.vpcpub.output.vpcpub</title>
<path fill="none" stroke="black" d="M2086.55,-287.697C2097.38,-278.881 2110.71,-268.032 2122.45,-258.474"/>
<polygon fill="black" stroke="black" points="2124.73,-261.132 2130.28,-252.104 2120.31,-255.703 2124.73,-261.132"/>
</g>
<!-- [root] aws_subnet.public1_subnet&#45;&gt;[root] var.cidrs -->
<g id="edge35" class="edge"><title>[root] aws_subnet.public1_subnet&#45;&gt;[root] var.cidrs</title>
<path fill="none" stroke="black" d="M2172.82,-294.896C2323.04,-280.782 2592.45,-255.468 2727.85,-242.746"/>
<polygon fill="black" stroke="black" points="2728.53,-246.198 2738.16,-241.778 2727.87,-239.228 2728.53,-246.198"/>
</g>
<!-- [root] aws_subnet.public2_subnet&#45;&gt;[root] module.vpcpub.output.vpcpub -->
<g id="edge36" class="edge"><title>[root] aws_subnet.public2_subnet&#45;&gt;[root] module.vpcpub.output.vpcpub</title>
<path fill="none" stroke="black" d="M2320.78,-287.966C2288.25,-277.8 2246.84,-264.859 2213.1,-254.314"/>
<polygon fill="black" stroke="black" points="2213.93,-250.908 2203.34,-251.266 2211.84,-257.59 2213.93,-250.908"/>
</g>
<!-- [root] aws_subnet.public2_subnet&#45;&gt;[root] var.cidrs -->
<g id="edge37" class="edge"><title>[root] aws_subnet.public2_subnet&#45;&gt;[root] var.cidrs</title>
<path fill="none" stroke="black" d="M2481.15,-287.966C2560.49,-275.198 2667.02,-258.055 2737.11,-246.776"/>
<polygon fill="black" stroke="black" points="2737.86,-250.2 2747.18,-245.156 2736.75,-243.289 2737.86,-250.2"/>
</g>
<!-- [root] aws_subnet.rds1_subnet&#45;&gt;[root] module.vpcpub.output.vpcpub -->
<g id="edge38" class="edge"><title>[root] aws_subnet.rds1_subnet&#45;&gt;[root] module.vpcpub.output.vpcpub</title>
<path fill="none" stroke="black" d="M2501.25,-289.417C2498.23,-288.938 2495.24,-288.465 2492.29,-288 2412.78,-275.446 2322.81,-261.471 2255.25,-251.024"/>
<polygon fill="black" stroke="black" points="2255.44,-247.513 2245.03,-249.444 2254.37,-254.431 2255.44,-247.513"/>
</g>
<!-- [root] aws_subnet.rds1_subnet&#45;&gt;[root] var.cidrs -->
<g id="edge39" class="edge"><title>[root] aws_subnet.rds1_subnet&#45;&gt;[root] var.cidrs</title>
<path fill="none" stroke="black" d="M2649.88,-287.966C2682.43,-277.22 2724.36,-263.374 2757.19,-252.534"/>
<polygon fill="black" stroke="black" points="2758.67,-255.732 2767.06,-249.273 2756.47,-249.085 2758.67,-255.732"/>
</g>
<!-- [root] aws_subnet.rds2_subnet&#45;&gt;[root] module.vpcpub.output.vpcpub -->
<g id="edge40" class="edge"><title>[root] aws_subnet.rds2_subnet&#45;&gt;[root] module.vpcpub.output.vpcpub</title>
<path fill="none" stroke="black" d="M2713.28,-289.189C2710.25,-288.776 2707.25,-288.379 2704.29,-288 2567.32,-270.47 2410.58,-255.97 2299.03,-246.594"/>
<polygon fill="black" stroke="black" points="2299.31,-243.106 2289.05,-245.759 2298.73,-250.081 2299.31,-243.106"/>
</g>
<!-- [root] aws_subnet.rds2_subnet&#45;&gt;[root] var.cidrs -->
<g id="edge41" class="edge"><title>[root] aws_subnet.rds2_subnet&#45;&gt;[root] var.cidrs</title>
<path fill="none" stroke="black" d="M2810.29,-287.697C2810.29,-279.983 2810.29,-270.712 2810.29,-262.112"/>
<polygon fill="black" stroke="black" points="2813.79,-262.104 2810.29,-252.104 2806.79,-262.104 2813.79,-262.104"/>
</g>
<!-- [root] aws_subnet.rds3_subnet&#45;&gt;[root] module.vpcpub.output.vpcpub -->
<g id="edge42" class="edge"><title>[root] aws_subnet.rds3_subnet&#45;&gt;[root] module.vpcpub.output.vpcpub</title>
<path fill="none" stroke="black" d="M2925.01,-289.05C2922.07,-288.68 2919.16,-288.329 2916.29,-288 2713.58,-264.771 2479.4,-250.359 2324.09,-242.533"/>
<polygon fill="black" stroke="black" points="2324.13,-239.031 2313.97,-242.027 2323.78,-246.022 2324.13,-239.031"/>
</g>
<!-- [root] aws_subnet.rds3_subnet&#45;&gt;[root] var.cidrs -->
<g id="edge43" class="edge"><title>[root] aws_subnet.rds3_subnet&#45;&gt;[root] var.cidrs</title>
<path fill="none" stroke="black" d="M2970.7,-287.966C2938.16,-277.22 2896.22,-263.374 2863.39,-252.534"/>
<polygon fill="black" stroke="black" points="2864.11,-249.085 2853.52,-249.273 2861.92,-255.732 2864.11,-249.085"/>
</g>
<!-- [root] module.vpcpub.aws_vpc.wp_vpc -->
<g id="node22" class="node"><title>[root] module.vpcpub.aws_vpc.wp_vpc</title>
<polygon fill="none" stroke="black" points="1506.29,-180 1256.29,-180 1256.29,-144 1506.29,-144 1506.29,-180"/>
<text text-anchor="middle" x="1381.29" y="-158.3" font-family="Times,serif" font-size="14.00">module.vpcpub.aws_vpc.wp_vpc</text>
</g>
<!-- [root] module.vpcpub.aws_vpc.wp_vpc&#45;&gt;[root] provider.aws -->
<g id="edge54" class="edge"><title>[root] module.vpcpub.aws_vpc.wp_vpc&#45;&gt;[root] provider.aws</title>
<path fill="none" stroke="black" d="M1256.03,-152.712C1035.48,-138.121 583.997,-108.249 401.961,-96.2051"/>
<polygon fill="black" stroke="black" points="402.139,-92.7092 391.929,-95.5413 401.676,-99.6939 402.139,-92.7092"/>
</g>
<!-- [root] module.vpcpub.var.vpc_cidr -->
<g id="node34" class="node"><title>[root] module.vpcpub.var.vpc_cidr</title>
<ellipse fill="none" stroke="black" cx="1381.29" cy="-90" rx="170.87" ry="18"/>
<text text-anchor="middle" x="1381.29" y="-86.3" font-family="Times,serif" font-size="14.00">[root] module.vpcpub.var.vpc_cidr</text>
</g>
<!-- [root] module.vpcpub.aws_vpc.wp_vpc&#45;&gt;[root] module.vpcpub.var.vpc_cidr -->
<g id="edge53" class="edge"><title>[root] module.vpcpub.aws_vpc.wp_vpc&#45;&gt;[root] module.vpcpub.var.vpc_cidr</title>
<path fill="none" stroke="black" d="M1381.29,-143.697C1381.29,-135.983 1381.29,-126.712 1381.29,-118.112"/>
<polygon fill="black" stroke="black" points="1384.79,-118.104 1381.29,-108.104 1377.79,-118.104 1384.79,-118.104"/>
</g>
<!-- [root] var.aws_profile -->
<g id="node36" class="node"><title>[root] var.aws_profile</title>
<ellipse fill="none" stroke="black" cx="205.291" cy="-18" rx="109.381" ry="18"/>
<text text-anchor="middle" x="205.291" y="-14.3" font-family="Times,serif" font-size="14.00">[root] var.aws_profile</text>
</g>
<!-- [root] provider.aws&#45;&gt;[root] var.aws_profile -->
<g id="edge65" class="edge"><title>[root] provider.aws&#45;&gt;[root] var.aws_profile</title>
<path fill="none" stroke="black" d="M301.096,-75.8335C284.422,-65.9424 261.219,-52.1778 241.824,-40.6722"/>
<polygon fill="black" stroke="black" points="243.604,-37.6587 233.218,-35.5668 240.033,-43.6791 243.604,-37.6587"/>
</g>
<!-- [root] var.aws_region -->
<g id="node37" class="node"><title>[root] var.aws_region</title>
<ellipse fill="none" stroke="black" cx="441.291" cy="-18" rx="109.381" ry="18"/>
<text text-anchor="middle" x="441.291" y="-14.3" font-family="Times,serif" font-size="14.00">[root] var.aws_region</text>
</g>
<!-- [root] provider.aws&#45;&gt;[root] var.aws_region -->
<g id="edge66" class="edge"><title>[root] provider.aws&#45;&gt;[root] var.aws_region</title>
<path fill="none" stroke="black" d="M345.486,-75.8335C362.159,-65.9424 385.362,-52.1778 404.758,-40.6722"/>
<polygon fill="black" stroke="black" points="406.549,-43.6791 413.364,-35.5668 402.978,-37.6587 406.549,-43.6791"/>
</g>
<!-- [root] module.vpcpub.output.vpcpub&#45;&gt;[root] module.vpcpub.aws_vpc.wp_vpc -->
<g id="edge55" class="edge"><title>[root] module.vpcpub.output.vpcpub&#45;&gt;[root] module.vpcpub.aws_vpc.wp_vpc</title>
<path fill="none" stroke="black" d="M2022.41,-221.284C1882.25,-208.541 1659.19,-188.264 1516.57,-175.298"/>
<polygon fill="black" stroke="black" points="1516.71,-171.797 1506.44,-174.377 1516.08,-178.768 1516.71,-171.797"/>
</g>
<!-- [root] meta.count&#45;boundary (count boundary fixup) -->
<g id="node31" class="node"><title>[root] meta.count&#45;boundary (count boundary fixup)</title>
<ellipse fill="none" stroke="black" cx="2221.29" cy="-522" rx="247.756" ry="18"/>
<text text-anchor="middle" x="2221.29" y="-518.3" font-family="Times,serif" font-size="14.00">[root] meta.count&#45;boundary (count boundary fixup)</text>
</g>
<!-- [root] meta.count&#45;boundary (count boundary fixup)&#45;&gt;[root] aws_db_subnet_group.rds_subnet_group -->
<g id="edge44" class="edge"><title>[root] meta.count&#45;boundary (count boundary fixup)&#45;&gt;[root] aws_db_subnet_group.rds_subnet_group</title>
<path fill="none" stroke="black" d="M2316.63,-505.387C2352.02,-497.266 2391.7,-485.299 2425.29,-468 2447.45,-456.588 2445.85,-442.837 2468.29,-432 2499.77,-416.8 2535.46,-405.951 2570.04,-398.211"/>
<polygon fill="black" stroke="black" points="2571.2,-401.54 2580.24,-396.009 2569.72,-394.698 2571.2,-401.54"/>
</g>
<!-- [root] meta.count&#45;boundary (count boundary fixup)&#45;&gt;[root] aws_iam_role_policy.s3_access_policy -->
<g id="edge45" class="edge"><title>[root] meta.count&#45;boundary (count boundary fixup)&#45;&gt;[root] aws_iam_role_policy.s3_access_policy</title>
<path fill="none" stroke="black" d="M2049.89,-508.977C2021.63,-507.179 1992.65,-505.447 1965.29,-504 1562.69,-482.708 1458.41,-498.205 1052.66,-468.07"/>
<polygon fill="black" stroke="black" points="1052.65,-464.558 1042.41,-467.303 1052.12,-471.539 1052.65,-464.558"/>
</g>
<!-- [root] meta.count&#45;boundary (count boundary fixup)&#45;&gt;[root] aws_route_table_association.public1_subnet_assoc -->
<g id="edge46" class="edge"><title>[root] meta.count&#45;boundary (count boundary fixup)&#45;&gt;[root] aws_route_table_association.public1_subnet_assoc</title>
<path fill="none" stroke="black" d="M2093.2,-506.538C1997.2,-495.7 1865.19,-480.795 1762.09,-469.154"/>
<polygon fill="black" stroke="black" points="1762.21,-465.647 1751.88,-468.002 1761.43,-472.602 1762.21,-465.647"/>
</g>
<!-- [root] meta.count&#45;boundary (count boundary fixup)&#45;&gt;[root] aws_route_table_association.public2_subnet_assoc -->
<g id="edge47" class="edge"><title>[root] meta.count&#45;boundary (count boundary fixup)&#45;&gt;[root] aws_route_table_association.public2_subnet_assoc</title>
<path fill="none" stroke="black" d="M2169.11,-504.322C2137.91,-494.348 2098.05,-481.609 2065.12,-471.084"/>
<polygon fill="black" stroke="black" points="2066.18,-467.747 2055.59,-468.036 2064.05,-474.415 2066.18,-467.747"/>
</g>
<!-- [root] meta.count&#45;boundary (count boundary fixup)&#45;&gt;[root] aws_security_group.wp_rds_sg -->
<g id="edge48" class="edge"><title>[root] meta.count&#45;boundary (count boundary fixup)&#45;&gt;[root] aws_security_group.wp_rds_sg</title>
<path fill="none" stroke="black" d="M2223.1,-503.653C2224.17,-483.227 2222.38,-449.831 2202.29,-432 2169.57,-402.953 1915.19,-388.924 1754.98,-382.906"/>
<polygon fill="black" stroke="black" points="1754.69,-379.393 1744.57,-382.521 1754.44,-386.388 1754.69,-379.393"/>
</g>
<!-- [root] meta.count&#45;boundary (count boundary fixup)&#45;&gt;[root] aws_subnet.private1_Subnet -->
<g id="edge49" class="edge"><title>[root] meta.count&#45;boundary (count boundary fixup)&#45;&gt;[root] aws_subnet.private1_Subnet</title>
<path fill="none" stroke="black" d="M2245.04,-503.91C2255.84,-494.651 2267.49,-482.2 2273.29,-468 2279.34,-453.189 2280.51,-446.279 2273.29,-432 2267.15,-419.858 2256.78,-409.817 2245.78,-401.862"/>
<polygon fill="black" stroke="black" points="2247.57,-398.848 2237.32,-396.185 2243.67,-404.662 2247.57,-398.848"/>
</g>
<!-- [root] meta.count&#45;boundary (count boundary fixup)&#45;&gt;[root] aws_subnet.private2_Subnet -->
<g id="edge50" class="edge"><title>[root] meta.count&#45;boundary (count boundary fixup)&#45;&gt;[root] aws_subnet.private2_Subnet</title>
<path fill="none" stroke="black" d="M2273.61,-504.345C2297.7,-495.448 2326.02,-483.177 2349.29,-468 2376.93,-449.972 2403.62,-423.132 2421.27,-403.643"/>
<polygon fill="black" stroke="black" points="2423.99,-405.846 2428.03,-396.048 2418.76,-401.193 2423.99,-405.846"/>
</g>
<!-- [root] module.vpcpub.output.vpcdefault -->
<g id="node32" class="node"><title>[root] module.vpcpub.output.vpcdefault</title>
<ellipse fill="none" stroke="black" cx="2673.29" cy="-450" rx="196.065" ry="18"/>
<text text-anchor="middle" x="2673.29" y="-446.3" font-family="Times,serif" font-size="14.00">[root] module.vpcpub.output.vpcdefault</text>
</g>
<!-- [root] meta.count&#45;boundary (count boundary fixup)&#45;&gt;[root] module.vpcpub.output.vpcdefault -->
<g id="edge51" class="edge"><title>[root] meta.count&#45;boundary (count boundary fixup)&#45;&gt;[root] module.vpcpub.output.vpcdefault</title>
<path fill="none" stroke="black" d="M2321.32,-505.508C2394.34,-494.201 2493.13,-478.901 2567.46,-467.39"/>
<polygon fill="black" stroke="black" points="2568.44,-470.78 2577.78,-465.791 2567.36,-463.863 2568.44,-470.78"/>
</g>
<!-- [root] output.InstanceIdentiy -->
<g id="node33" class="node"><title>[root] output.InstanceIdentiy</title>
<ellipse fill="none" stroke="black" cx="1207.29" cy="-450" rx="146.774" ry="18"/>
<text text-anchor="middle" x="1207.29" y="-446.3" font-family="Times,serif" font-size="14.00">[root] output.InstanceIdentiy</text>
</g>
<!-- [root] meta.count&#45;boundary (count boundary fixup)&#45;&gt;[root] output.InstanceIdentiy -->
<g id="edge52" class="edge"><title>[root] meta.count&#45;boundary (count boundary fixup)&#45;&gt;[root] output.InstanceIdentiy</title>
<path fill="none" stroke="black" d="M2045.71,-509.278C2018.78,-507.498 1991.29,-505.692 1965.29,-504 1714.2,-487.664 1651.19,-487.04 1400.29,-468 1377.87,-466.298 1353.99,-464.326 1330.95,-462.34"/>
<polygon fill="black" stroke="black" points="1331.05,-458.836 1320.79,-461.459 1330.45,-465.81 1331.05,-458.836"/>
</g>
<!-- [root] output.InstanceIdentiy&#45;&gt;[root] aws_instance.EC2_public1 -->
<g id="edge56" class="edge"><title>[root] output.InstanceIdentiy&#45;&gt;[root] aws_instance.EC2_public1</title>
<path fill="none" stroke="black" d="M1116.54,-435.792C1038.44,-424.428 925.369,-407.972 841.018,-395.696"/>
<polygon fill="black" stroke="black" points="841.277,-392.197 830.877,-394.221 840.269,-399.124 841.277,-392.197"/>
</g>
<!-- [root] provider.aws (close) -->
<g id="node35" class="node"><title>[root] provider.aws (close)</title>
<ellipse fill="none" stroke="black" cx="1823.29" cy="-522" rx="132.677" ry="18"/>
<text text-anchor="middle" x="1823.29" y="-518.3" font-family="Times,serif" font-size="14.00">[root] provider.aws (close)</text>
</g>
<!-- [root] provider.aws (close)&#45;&gt;[root] aws_db_subnet_group.rds_subnet_group -->
<g id="edge57" class="edge"><title>[root] provider.aws (close)&#45;&gt;[root] aws_db_subnet_group.rds_subnet_group</title>
<path fill="none" stroke="black" d="M1918.46,-509.407C1933.78,-507.575 1949.47,-505.719 1964.29,-504 2107.77,-487.355 2145.26,-494.299 2287.29,-468 2349.62,-456.459 2363.36,-445.507 2425.29,-432 2484.96,-418.987 2551.81,-406.963 2607.33,-397.668"/>
<polygon fill="black" stroke="black" points="2607.91,-401.119 2617.2,-396.024 2606.76,-394.214 2607.91,-401.119"/>
</g>
<!-- [root] provider.aws (close)&#45;&gt;[root] aws_iam_role_policy.s3_access_policy -->
<g id="edge58" class="edge"><title>[root] provider.aws (close)&#45;&gt;[root] aws_iam_role_policy.s3_access_policy</title>
<path fill="none" stroke="black" d="M1703.15,-514.324C1553.36,-505.643 1289.21,-489.166 1052.6,-468.096"/>
<polygon fill="black" stroke="black" points="1052.69,-464.591 1042.42,-467.186 1052.07,-471.563 1052.69,-464.591"/>
</g>
<!-- [root] provider.aws (close)&#45;&gt;[root] aws_instance.EC2_public1 -->
<g id="edge59" class="edge"><title>[root] provider.aws (close)&#45;&gt;[root] aws_instance.EC2_public1</title>
<path fill="none" stroke="black" d="M1692.57,-518.789C1413.29,-513.493 780.818,-498.217 745.291,-468 727.846,-453.163 724.065,-426.595 724.067,-406.337"/>
<polygon fill="black" stroke="black" points="727.571,-406.232 724.377,-396.131 720.575,-406.02 727.571,-406.232"/>
</g>
<!-- [root] provider.aws (close)&#45;&gt;[root] aws_route_table_association.public1_subnet_assoc -->
<g id="edge60" class="edge"><title>[root] provider.aws (close)&#45;&gt;[root] aws_route_table_association.public1_subnet_assoc</title>
<path fill="none" stroke="black" d="M1773.47,-505.291C1741.47,-495.202 1699.61,-482.002 1665.18,-471.145"/>
<polygon fill="black" stroke="black" points="1665.81,-467.673 1655.22,-468.003 1663.7,-474.349 1665.81,-467.673"/>
</g>
<!-- [root] provider.aws (close)&#45;&gt;[root] aws_route_table_association.public2_subnet_assoc -->
<g id="edge61" class="edge"><title>[root] provider.aws (close)&#45;&gt;[root] aws_route_table_association.public2_subnet_assoc</title>
<path fill="none" stroke="black" d="M1864.81,-504.765C1890.03,-494.902 1922.47,-482.216 1949.5,-471.644"/>
<polygon fill="black" stroke="black" points="1950.78,-474.903 1958.82,-468.001 1948.23,-468.383 1950.78,-474.903"/>
</g>
<!-- [root] provider.aws (close)&#45;&gt;[root] aws_security_group.wp_rds_sg -->
<g id="edge62" class="edge"><title>[root] provider.aws (close)&#45;&gt;[root] aws_security_group.wp_rds_sg</title>
<path fill="none" stroke="black" d="M1704.28,-514.051C1586.28,-505.917 1420.25,-490.613 1400.29,-468 1389.7,-456.004 1390.36,-444.549 1400.29,-432 1408.21,-421.986 1464.05,-408.763 1517.98,-398.029"/>
<polygon fill="black" stroke="black" points="1518.88,-401.419 1528.02,-396.055 1517.53,-394.551 1518.88,-401.419"/>
</g>
<!-- [root] provider.aws (close)&#45;&gt;[root] aws_subnet.private1_Subnet -->
<g id="edge63" class="edge"><title>[root] provider.aws (close)&#45;&gt;[root] aws_subnet.private1_Subnet</title>
<path fill="none" stroke="black" d="M1917.9,-509.306C2028.62,-495.397 2197.61,-473.381 2202.29,-468 2216.82,-451.299 2214.77,-425.42 2210.16,-405.865"/>
<polygon fill="black" stroke="black" points="2213.48,-404.765 2207.5,-396.024 2206.73,-406.59 2213.48,-404.765"/>
</g>
<!-- [root] provider.aws (close)&#45;&gt;[root] aws_subnet.private2_Subnet -->
<g id="edge64" class="edge"><title>[root] provider.aws (close)&#45;&gt;[root] aws_subnet.private2_Subnet</title>
<path fill="none" stroke="black" d="M1919.12,-509.514C2027.51,-496.32 2192.73,-475.526 2221.29,-468 2284.82,-451.261 2354.6,-421.029 2398.41,-400.493"/>
<polygon fill="black" stroke="black" points="2400.08,-403.577 2407.62,-396.139 2397.09,-397.248 2400.08,-403.577"/>
</g>
<!-- [root] root -->
<g id="node38" class="node"><title>[root] root</title>
<ellipse fill="none" stroke="black" cx="2022.29" cy="-594" rx="58.4896" ry="18"/>
<text text-anchor="middle" x="2022.29" y="-590.3" font-family="Times,serif" font-size="14.00">[root] root</text>
</g>
<!-- [root] root&#45;&gt;[root] meta.count&#45;boundary (count boundary fixup) -->
<g id="edge67" class="edge"><title>[root] root&#45;&gt;[root] meta.count&#45;boundary (count boundary fixup)</title>
<path fill="none" stroke="black" d="M2059.25,-579.998C2088.62,-569.67 2130.19,-555.044 2163.88,-543.195"/>
<polygon fill="black" stroke="black" points="2165.33,-546.393 2173.61,-539.773 2163.01,-539.79 2165.33,-546.393"/>
</g>
<!-- [root] root&#45;&gt;[root] provider.aws (close) -->
<g id="edge68" class="edge"><title>[root] root&#45;&gt;[root] provider.aws (close)</title>
<path fill="none" stroke="black" d="M1985.33,-579.998C1955.35,-569.454 1912.64,-554.431 1878.6,-542.455"/>
<polygon fill="black" stroke="black" points="1879.39,-539.022 1868.79,-539.005 1877.06,-545.625 1879.39,-539.022"/>
</g>
</g>
</svg>
